<svg width="33" height="23" viewBox="0 0 33 23" fill="none" xmlns="http://www.w3.org/2000/svg">
<g filter="url(#filter0_d_63810_38)">
<path fill-rule="evenodd" clip-rule="evenodd" d="M28.1164 1.80445C28.2824 1.25845 28.1164 0.856445 27.3214 0.856445H24.6964C24.0284 0.856445 23.7204 1.20345 23.5534 1.58645C23.5534 1.58645 22.2184 4.78245 20.3274 6.85845C19.7154 7.46045 19.4374 7.65145 19.1034 7.65145C18.9364 7.65145 18.6854 7.46045 18.6854 6.91345V1.80445C18.6854 1.14845 18.5014 0.856445 17.9454 0.856445H13.8174C13.4004 0.856445 13.1494 1.16045 13.1494 1.44945C13.1494 2.07045 14.0954 2.21445 14.1924 3.96245V7.76045C14.1924 8.59345 14.0394 8.74444 13.7054 8.74444C12.8154 8.74444 10.6504 5.53345 9.36538 1.85945C9.11638 1.14445 8.86438 0.856445 8.19338 0.856445H5.56638C4.81638 0.856445 4.66638 1.20345 4.66638 1.58645C4.66638 2.26845 5.55638 5.65645 8.81138 10.1374C10.9814 13.1974 14.0364 14.8564 16.8194 14.8564C18.4884 14.8564 18.6944 14.4884 18.6944 13.8534V11.5404C18.6944 10.8034 18.8524 10.6564 19.3814 10.6564C19.7714 10.6564 20.4384 10.8484 21.9964 12.3234C23.7764 14.0724 24.0694 14.8564 25.0714 14.8564H27.6964C28.4464 14.8564 28.8224 14.4884 28.6064 13.7604C28.3684 13.0364 27.5184 11.9854 26.3914 10.7384C25.7794 10.0284 24.8614 9.26345 24.5824 8.88045C24.1934 8.38945 24.3044 8.17044 24.5824 7.73345C24.5824 7.73345 27.7824 3.30745 28.1154 1.80445H28.1164Z" fill="#83B3D3"/>
</g>
<defs>
<filter id="filter0_d_63810_38" x="0.666382" y="0.856445" width="32.0005" height="22" filterUnits="userSpaceOnUse" color-interpolation-filters="sRGB">
<feFlood flood-opacity="0" result="BackgroundImageFix"/>
<feColorMatrix in="SourceAlpha" type="matrix" values="0 0 0 0 0 0 0 0 0 0 0 0 0 0 0 0 0 0 127 0" result="hardAlpha"/>
<feOffset dy="4"/>
<feGaussianBlur stdDeviation="2"/>
<feComposite in2="hardAlpha" operator="out"/>
<feColorMatrix type="matrix" values="0 0 0 0 0 0 0 0 0 0 0 0 0 0 0 0 0 0 0.25 0"/>
<feBlend mode="normal" in2="BackgroundImageFix" result="effect1_dropShadow_63810_38"/>
<feBlend mode="normal" in="SourceGraphic" in2="effect1_dropShadow_63810_38" result="shape"/>
</filter>
</defs>
</svg>
